<svg width="120" height="40" viewBox="0 0 120 40" fill="none" xmlns="http://www.w3.org/2000/svg">
  <!-- M -->
  <path d="M15 30V10H19.5L25 22L30.5 10H35V30H30V16.5L25 27H25L20 16.5V30H15Z" fill="url(#textGradient)"/>
  
  <!-- L -->
  <path d="M45 10H50V25H62V30H45V10Z" fill="url(#textGradient)"/>
  
  <!-- a -->
  <path d="M70 20C70 17.25 72.25 15 75 15H82.5C82.5 15 84.5 15 84.5 17.5V30H80V27.5C80 27.5 78.75 30 75 30C72.5 30 70 28.75 70 25C70 21.25 73.75 20 76.25 20H80C80 18.75 79.25 17.5 77.5 17.5C75.75 17.5 75 18.75 75 20H70ZM80 22.5H77.5C76.25 22.5 75 23.25 75 25C75 26.25 76.25 27.5 77.5 27.5C78.75 27.5 80 26.25 80 25V22.5Z" fill="url(#textGradient)"/>
  
  <!-- b -->
  <path d="M90 10H94.5V17.5C94.5 17.5 96.25 15 99.5 15C103.75 15 107.5 18.75 107.5 22.5C107.5 26.25 103.75 30 99.5 30C96.25 30 94.5 27.5 94.5 27.5V30H90V10ZM94.5 22.5C94.5 25 96.75 27.5 99.5 27.5C102.25 27.5 104.5 25 104.5 22.5C104.5 20 102.25 17.5 99.5 17.5C96.75 17.5 94.5 20 94.5 22.5Z" fill="url(#textGradient)"/>
  
  <!-- s -->
  <path d="M110 19.5C110 16.75 112.25 15 115 15C117.75 15 120 16.75 120 20H115.5C115.5 18.75 115 17.5 113.75 17.5C112.5 17.5 112 18.5 112 19.5C112 22.5 120 20 120 25C120 28.25 117.25 30 114.5 30C111.75 30 109 28.75 109 25H113.5C113.5 26.25 114.5 27.5 115.75 27.5C117 27.5 117.5 26.25 117.5 25.5C117.5 22.5 110 24.5 110 19.5Z" fill="url(#textGradient)"/>
  
  <!-- Define gradient for text -->
  <defs>
    <linearGradient id="textGradient" x1="15" y1="10" x2="120" y2="30" gradientUnits="userSpaceOnUse">
      <stop offset="0" stop-color="#ff6694" />
      <stop offset="1" stop-color="#ff8a33" />
    </linearGradient>
  </defs>
</svg>